<svg width="159" height="30" viewBox="0 0 159 30" fill="none" xmlns="http://www.w3.org/2000/svg">
<path d="M24.0272 16.9969L26.1779 7.52514C26.3332 6.84126 25.8138 6.19003 25.1132 6.19003H7.24332L6.82631 4.1495C6.7224 3.64089 6.27527 3.27563 5.75657 3.27563H1.09195C0.488911 3.27563 6.10352e-05 3.76493 6.10352e-05 4.36853V5.09713C6.10352e-05 5.70073 0.488911 6.19003 1.09195 6.19003H4.27132L7.4673 21.8292C6.7027 22.2693 6.18746 23.0945 6.18746 24.0407C6.18746 25.4491 7.32812 26.5908 8.73521 26.5908C10.1423 26.5908 11.283 25.4491 11.283 24.0407C11.283 23.3269 10.9897 22.6821 10.5175 22.2192H20.0556C19.5835 22.6821 19.2902 23.3269 19.2902 24.0407C19.2902 25.4491 20.4309 26.5908 21.8379 26.5908C23.245 26.5908 24.3857 25.4491 24.3857 24.0407C24.3857 23.031 23.7993 22.1585 22.949 21.7454L23.2 20.6399C23.3553 19.956 22.8359 19.3048 22.1353 19.3048H9.92342L9.62565 17.8476H22.9625C23.4723 17.8476 23.9142 17.4945 24.0272 16.9969Z" fill="#2E2E2E"/>
<path d="M44.688 10.5335C45.9212 10.5335 47.0393 10.8212 48.0423 11.3967C49.0618 11.9558 49.8592 12.7532 50.4347 13.7891C51.0102 14.8086 51.298 16.0007 51.298 17.3654C51.298 18.7301 51.0102 19.9304 50.4347 20.9663C49.8592 21.9858 49.0618 22.7832 48.0423 23.3587C47.0393 23.9178 45.9212 24.1973 44.688 24.1973C42.8629 24.1973 41.4735 23.6218 40.5198 22.4708V24H36.8449V5.69935H40.6925V12.1366C41.6626 11.0679 42.9944 10.5335 44.688 10.5335ZM44.0221 21.0403C45.0087 21.0403 45.8144 20.7115 46.4392 20.0538C47.0804 19.3796 47.4011 18.4835 47.4011 17.3654C47.4011 16.2473 47.0804 15.3594 46.4392 14.7017C45.8144 14.0275 45.0087 13.6905 44.0221 13.6905C43.0355 13.6905 42.2216 14.0275 41.5804 14.7017C40.9556 15.3594 40.6431 16.2473 40.6431 17.3654C40.6431 18.4835 40.9556 19.3796 41.5804 20.0538C42.2216 20.7115 43.0355 21.0403 44.0221 21.0403ZM67.2415 10.7308V24H63.5912V22.4215C63.0815 22.997 62.4731 23.441 61.7661 23.7534C61.059 24.0493 60.2945 24.1973 59.4723 24.1973C57.7294 24.1973 56.3482 23.6958 55.3288 22.6928C54.3093 21.6898 53.7996 20.2018 53.7996 18.2286V10.7308H57.6472V17.6614C57.6472 19.7989 58.5433 20.8677 60.3356 20.8677C61.2564 20.8677 61.9963 20.5717 62.5553 19.9798C63.1144 19.3714 63.3939 18.4753 63.3939 17.2914V10.7308H67.2415ZM83.9765 10.7308L77.9832 24.8139C77.3748 26.3431 76.6185 27.4201 75.7141 28.0449C74.8262 28.6697 73.7492 28.9821 72.4831 28.9821C71.7926 28.9821 71.1102 28.8752 70.436 28.6615C69.7619 28.4477 69.2111 28.1518 68.7836 27.7736L70.1894 25.0359C70.4854 25.299 70.8224 25.5045 71.2006 25.6525C71.5952 25.8005 71.9816 25.8745 72.3598 25.8745C72.886 25.8745 73.3135 25.7429 73.6424 25.4798C73.9712 25.2332 74.2672 24.8139 74.5303 24.222L74.5796 24.0987L68.8329 10.7308H72.8038L76.528 19.7331L80.277 10.7308H83.9765ZM98.1832 17.4147C98.1832 17.4641 98.1585 17.8093 98.1092 18.4506H88.071C88.2518 19.2727 88.6793 19.9222 89.3535 20.3991C90.0276 20.8759 90.8662 21.1143 91.8692 21.1143C92.5598 21.1143 93.1682 21.0157 93.6943 20.8184C94.2369 20.6046 94.7384 20.2757 95.1988 19.8318L97.2459 22.0515C95.9963 23.4821 94.1712 24.1973 91.7705 24.1973C90.2743 24.1973 88.9506 23.9096 87.7997 23.3341C86.6487 22.7421 85.7608 21.9282 85.1359 20.8923C84.5111 19.8565 84.1987 18.6808 84.1987 17.3654C84.1987 16.0664 84.5029 14.899 85.1113 13.8631C85.7361 12.8108 86.5829 11.9969 87.6517 11.4214C88.7369 10.8295 89.9454 10.5335 91.2773 10.5335C92.5762 10.5335 93.7519 10.813 94.8042 11.3721C95.8565 11.9311 96.6787 12.7368 97.2706 13.7891C97.879 14.825 98.1832 16.0335 98.1832 17.4147ZM91.3019 13.4438C90.4305 13.4438 89.6988 13.6905 89.1068 14.1837C88.5149 14.677 88.1532 15.3512 88.0216 16.2062H94.5576C94.426 15.3676 94.0643 14.7017 93.4724 14.2084C92.8804 13.6987 92.157 13.4438 91.3019 13.4438ZM104.42 12.4819C104.88 11.8407 105.497 11.3556 106.269 11.0268C107.059 10.6979 107.963 10.5335 108.983 10.5335V14.0851C108.555 14.0522 108.267 14.0358 108.119 14.0358C107.018 14.0358 106.154 14.3482 105.53 14.973C104.905 15.5814 104.592 16.5022 104.592 17.7354V24H100.745V10.7308H104.42V12.4819ZM117.464 24.1973C116.066 24.1973 114.808 23.9096 113.69 23.3341C112.589 22.7421 111.725 21.9282 111.101 20.8923C110.476 19.8565 110.163 18.6808 110.163 17.3654C110.163 16.05 110.476 14.8743 111.101 13.8385C111.725 12.8026 112.589 11.9969 113.69 11.4214C114.808 10.8295 116.066 10.5335 117.464 10.5335C118.861 10.5335 120.111 10.8295 121.213 11.4214C122.314 11.9969 123.178 12.8026 123.802 13.8385C124.427 14.8743 124.74 16.05 124.74 17.3654C124.74 18.6808 124.427 19.8565 123.802 20.8923C123.178 21.9282 122.314 22.7421 121.213 23.3341C120.111 23.9096 118.861 24.1973 117.464 24.1973ZM117.464 21.0403C118.45 21.0403 119.256 20.7115 119.881 20.0538C120.522 19.3796 120.843 18.4835 120.843 17.3654C120.843 16.2473 120.522 15.3594 119.881 14.7017C119.256 14.0275 118.45 13.6905 117.464 13.6905C116.477 13.6905 115.663 14.0275 115.022 14.7017C114.381 15.3594 114.06 16.2473 114.06 17.3654C114.06 18.4835 114.381 19.3796 115.022 20.0538C115.663 20.7115 116.477 21.0403 117.464 21.0403ZM132.447 10.5335C134.502 10.5335 136.081 11.0268 137.182 12.0133C138.284 12.9834 138.835 14.4551 138.835 16.4282V24H135.234V22.3475C134.51 23.5807 133.162 24.1973 131.189 24.1973C130.169 24.1973 129.282 24.0247 128.525 23.6794C127.785 23.3341 127.218 22.8572 126.823 22.2489C126.429 21.6405 126.231 20.9499 126.231 20.1771C126.231 18.9439 126.692 17.9738 127.613 17.2667C128.55 16.5597 129.989 16.2062 131.929 16.2062H134.987C134.987 15.3676 134.732 14.7264 134.223 14.2824C133.713 13.822 132.948 13.5918 131.929 13.5918C131.222 13.5918 130.523 13.7069 129.832 13.9371C129.158 14.1509 128.583 14.4468 128.106 14.825L126.725 12.1366C127.448 11.6269 128.311 11.2323 129.314 10.9528C130.334 10.6732 131.378 10.5335 132.447 10.5335ZM132.151 21.6076C132.809 21.6076 133.392 21.4596 133.902 21.1636C134.412 20.8512 134.773 20.3991 134.987 19.8071V18.4506H132.348C130.77 18.4506 129.98 18.9686 129.98 20.0044C129.98 20.4977 130.169 20.8923 130.548 21.1883C130.942 21.4678 131.477 21.6076 132.151 21.6076ZM155.977 5.69935V24H152.302V22.4708C151.349 23.6218 149.968 24.1973 148.159 24.1973C146.909 24.1973 145.775 23.9178 144.755 23.3587C143.752 22.7997 142.963 22.0022 142.388 20.9663C141.812 19.9304 141.524 18.7301 141.524 17.3654C141.524 16.0007 141.812 14.8003 142.388 13.7645C142.963 12.7286 143.752 11.9311 144.755 11.3721C145.775 10.813 146.909 10.5335 148.159 10.5335C149.852 10.5335 151.176 11.0679 152.13 12.1366V5.69935H155.977ZM148.825 21.0403C149.795 21.0403 150.601 20.7115 151.242 20.0538C151.883 19.3796 152.204 18.4835 152.204 17.3654C152.204 16.2473 151.883 15.3594 151.242 14.7017C150.601 14.0275 149.795 13.6905 148.825 13.6905C147.838 13.6905 147.024 14.0275 146.383 14.7017C145.742 15.3594 145.421 16.2473 145.421 17.3654C145.421 18.4835 145.742 19.3796 146.383 20.0538C147.024 20.7115 147.838 21.0403 148.825 21.0403Z" fill="#2E2E2E"/>
</svg>
