<svg width="73" height="36" viewBox="0 0 73 36" fill="none" xmlns="http://www.w3.org/2000/svg">
<path d="M57.6219 31.0803C57.6089 29.298 58.9749 27.8149 60.6402 27.8019C62.2013 27.7889 63.5153 29.1939 63.5153 30.8852C63.5153 32.6155 62.1363 34.1376 60.5361 34.1376C58.8708 34.1637 57.6349 32.8627 57.6219 31.0803Z" fill="#FEF261"/>
<path d="M27.075 31.0934C27.049 29.298 28.402 27.8019 30.0543 27.7889C31.7065 27.7759 32.9424 29.0899 32.9554 30.8722C32.9685 32.6025 31.6024 34.0986 29.9762 34.1247C28.402 34.1637 27.101 32.8107 27.075 31.0934Z" fill="#FEF261"/>
<path d="M66.0782 16.4834C65.792 16.4964 65.5839 16.5224 65.3757 16.5224C61.824 16.5224 58.2724 16.5224 54.7207 16.5354C54.1353 16.5354 53.9011 16.4183 54.0052 15.7678C54.2523 14.1806 54.4345 12.5934 54.6166 11.0062C54.6687 10.5509 54.8768 10.4208 55.2931 10.4208C57.5438 10.4338 59.7945 10.4078 62.0582 10.4338C62.2924 10.4338 62.6306 10.5899 62.7477 10.7721C63.8536 12.5284 64.9204 14.3237 65.9872 16.0931C66.0132 16.1841 66.0262 16.2752 66.0782 16.4834Z" fill="#FEF261"/>
<path d="M53.5498 29.8965C53.5368 26.8132 55.5793 24.2502 58.5456 23.6258C60.497 23.2094 62.6697 24.1592 63.8926 25.9545C66.1173 29.22 64.6992 33.9685 61.0434 35.4647C58.5326 36.4794 55.6704 35.4386 54.3564 33.0188C53.836 32.0431 53.5368 31.0023 53.5498 29.8965ZM56.3209 29.7794C56.3339 31.5617 57.5698 32.8627 59.2351 32.8497C60.8353 32.8367 62.2143 31.3275 62.2143 29.5972C62.2143 27.906 60.9003 26.5009 59.3392 26.5139C57.6739 26.5269 56.3079 28.0101 56.3209 29.7794Z" fill="#2E2E2E"/>
<path d="M22.964 29.8184C23.055 27.2034 24.6032 24.7836 26.8149 23.912C29.8852 22.702 33.0465 24.2372 34.1134 27.4636C35.0501 30.2998 33.8141 33.5652 31.2382 35.0744C28.1679 36.8697 24.291 35.2175 23.3022 31.6658C23.1331 31.0673 23.068 30.4429 22.964 29.8184ZM25.7741 29.7924C25.7871 31.5097 27.0881 32.8757 28.6753 32.8367C30.3015 32.7976 31.6545 31.3145 31.6545 29.5842C31.6415 27.8019 30.4056 26.4749 28.7533 26.5009C27.1011 26.5009 25.7611 27.984 25.7741 29.7924Z" fill="#2E2E2E"/>
<path d="M58.7792 16.4313C56.8147 16.4313 54.8372 16.4313 52.8727 16.4313C51.7018 16.4313 51.3246 15.9629 51.4807 14.8051C51.7279 12.9187 51.949 11.0192 52.1962 9.13281C52.3003 8.31319 52.6385 7.97494 53.4712 7.96193C56.0731 7.93591 58.6621 7.9229 61.264 7.97494C61.6023 7.97494 62.0706 8.26116 62.2528 8.56038C63.5407 10.5899 64.7767 12.6455 65.9996 14.714C66.52 15.5987 66.0126 16.4183 64.9458 16.4313C62.8903 16.4573 60.8347 16.4443 58.7792 16.4313C58.7792 16.4443 58.7792 16.4313 58.7792 16.4313ZM64.7767 15.1824C64.7116 14.9742 64.7116 14.8831 64.6596 14.8181C63.5928 13.0357 62.526 11.2534 61.4202 9.49708C61.3031 9.30194 60.9648 9.15883 60.7306 9.15883C58.4799 9.13281 56.2292 9.14582 53.9655 9.14582C53.5492 9.14582 53.3411 9.27592 53.289 9.73126C53.1069 11.3185 52.9248 12.9187 52.6776 14.4928C52.5735 15.1433 52.8207 15.2604 53.3931 15.2604C56.9448 15.2344 60.4965 15.2474 64.0481 15.2474C64.2823 15.2344 64.4905 15.2084 64.7767 15.1824Z" fill="#2E2E2E"/>
<path d="M11.9053 15.7548C8.48369 15.7548 5.06212 15.7548 1.64054 15.7548C1.38035 15.7548 1.12015 15.7548 0.859955 15.7418C0.326553 15.7027 0.0273284 15.4035 0.00130879 14.8701C-0.0247108 14.3627 0.339563 13.9985 0.885974 13.9594C1.10714 13.9464 1.3153 13.9464 1.53646 13.9464C8.50971 13.9464 15.483 13.9464 22.4562 13.9464C22.6513 13.9464 22.8595 13.9334 23.0416 13.9855C23.484 14.1025 23.7702 14.3888 23.7572 14.8701C23.7442 15.3385 23.484 15.6507 23.0156 15.7157C22.6513 15.7678 22.2871 15.7548 21.9098 15.7548C18.5663 15.7548 15.2358 15.7548 11.9053 15.7548Z" fill="#2E2E2E"/>
<path d="M13.5185 7.83185C15.6911 7.83185 17.8508 7.83185 20.0234 7.83185C20.5178 7.83185 20.9471 7.94893 21.1162 8.45632C21.3244 9.05477 20.8951 9.60118 20.1925 9.61419C18.9826 9.64021 17.7597 9.6272 16.5498 9.6272C13.4274 9.6272 10.3051 9.6272 7.18274 9.6272C6.96157 9.6272 6.74041 9.64021 6.53225 9.61419C6.03788 9.54914 5.72565 9.26292 5.72565 8.75554C5.71264 8.22214 6.02487 7.88388 6.55827 7.84485C7.14371 7.80583 7.72915 7.83185 8.31459 7.83185C10.0579 7.83185 11.7882 7.83185 13.5185 7.83185Z" fill="#2E2E2E"/>
<path d="M16.7709 27.906C15.0666 27.906 13.3493 27.919 11.6451 27.906C10.7994 27.893 10.3311 27.2165 10.7474 26.592C10.9035 26.3579 11.2678 26.1497 11.528 26.1497C14.9886 26.1237 18.4492 26.1237 21.9098 26.1367C22.5212 26.1367 22.8855 26.501 22.8855 27.0344C22.8855 27.5678 22.5473 27.906 21.8968 27.906C20.1925 27.919 18.4752 27.906 16.7709 27.906Z" fill="#2E2E2E"/>
<path d="M11.8922 21.9605C10.4221 21.9605 8.93894 21.9605 7.46883 21.9605C7.27369 21.9605 7.07854 21.9736 6.88339 21.9475C6.363 21.8825 6.02475 21.5963 6.01174 21.0629C5.99873 20.5295 6.32397 20.2172 6.84436 20.1652C7.31272 20.1262 7.79408 20.1392 8.27544 20.1392C10.9034 20.1392 13.5184 20.1392 16.1464 20.1392C16.3415 20.1392 16.5367 20.1262 16.7318 20.1522C17.3823 20.2042 17.6945 20.5034 17.6815 21.0629C17.6815 21.6093 17.3433 21.9475 16.7058 21.9475C15.1056 21.9605 13.5054 21.9475 11.8922 21.9605Z" fill="#2E2E2E"/>
<path d="M72.1406 15.5857C69.8509 12.5414 67.5611 9.48413 65.3235 6.3878C64.3087 4.96974 63.0077 4.34527 61.2904 4.35828C57.6867 4.39731 54.096 4.37129 50.4923 4.35828C48.9571 4.35828 49.1523 4.57944 49.1393 3.01827C49.1133 1.02777 48.0855 0 46.069 0C34.9066 0 30.6133 0 19.451 0C17.4344 0 16.4197 1.01476 16.4197 3.04429C16.4197 3.75983 16.4197 4.47537 16.4197 5.19091H18.215C18.215 4.46236 18.215 3.74682 18.215 3.01827C18.215 2.05555 18.4362 1.83438 19.4119 1.83438C30.5743 1.83438 34.8675 1.83438 46.0299 1.83438C47.1098 1.83438 47.2919 2.00351 47.2919 3.08332C47.2919 11.8649 47.2919 20.6465 47.3049 29.4281C47.3049 29.9876 47.1358 30.2478 46.5633 30.1957C46.3292 30.1697 46.082 30.1957 45.8478 30.1957C42.4653 30.1957 39.0827 30.1957 35.7002 30.2087C35.453 30.2087 35.0757 30.3128 34.9976 30.4689C34.8025 30.9113 34.7505 31.4056 34.6334 31.913C40.852 31.913 46.9666 31.913 53.1723 31.913C53.1203 31.5357 53.0552 31.2235 53.0292 30.8982C53.0032 30.3258 52.743 30.1046 52.1576 30.1437C51.442 30.1957 50.7265 30.1177 50.0109 30.1697C49.3995 30.2087 49.1783 30.0136 49.1783 29.3631C49.1913 21.8825 49.1913 14.4018 49.1913 6.92121C49.1913 6.85616 49.1913 6.79111 49.1913 6.72606C49.1653 6.34878 49.3474 6.17965 49.7247 6.17965C53.7317 6.19266 57.7518 6.17965 61.7588 6.20567C62.5654 6.20567 63.1898 6.56994 63.6712 7.24645C65.9869 10.4078 68.3287 13.5562 70.6835 16.6916C71.0348 17.1729 71.2299 17.6543 71.1779 18.2527C70.8916 21.5312 70.5794 24.8097 70.3712 28.1011C70.2932 29.3501 69.4085 30.1567 67.9514 30.1437C67.3009 30.1437 66.6504 30.1307 66 30.1567C65.8178 30.1697 65.5446 30.2998 65.5056 30.4299C65.3625 30.8722 65.2974 31.3406 65.1803 31.926C66.1951 31.926 67.1188 31.926 68.0425 31.926C70.5534 31.913 72.0495 30.4429 72.2186 27.932C72.4268 24.8617 72.674 21.7914 72.9602 18.7341C73.1033 17.5632 72.8691 16.5484 72.1406 15.5857Z" fill="#2E2E2E"/>
<path d="M20.5308 31.965C20.5699 31.978 20.8561 31.978 20.5308 31.965V31.965Z" fill="#2E2E2E"/>
<path d="M21.5067 30.1696C20.8562 30.1826 20.531 30.1826 20.4009 30.1826C20.2187 30.1826 19.9325 30.1826 19.4772 30.1826C18.4884 30.1826 18.2282 29.9224 18.2282 28.9597C18.2282 28.5954 18.2282 28.2182 18.2282 27.8539H16.9533C16.8882 27.8539 16.8232 27.8539 16.7581 27.8539C16.654 27.8539 16.537 27.8539 16.4329 27.8539C16.4329 28.2572 16.4329 28.6475 16.4329 29.0508C16.4329 30.9242 17.4346 31.952 19.308 31.965C19.9976 31.965 20.3618 31.965 20.544 31.965C20.518 31.965 20.7131 31.965 21.923 31.965C22.1572 31.965 22.3783 31.939 22.6906 31.9259C22.6385 31.5747 22.5605 31.3015 22.5475 31.0283C22.5215 30.3387 22.1832 30.1566 21.5067 30.1696Z" fill="#2E2E2E"/>
</svg>
