<svg width="78" height="72" viewBox="0 0 78 72" fill="none" xmlns="http://www.w3.org/2000/svg">
<path d="M50.5985 29.2666C50.5892 30.3633 50.2081 31.0696 49.6133 31.6737C47.8847 33.421 46.1281 35.1496 44.4087 36.9062C42.7451 38.607 40.8677 40.1312 39.6502 42.2223C38.7673 43.7465 37.8658 45.28 37.1409 46.8786C35.2356 51.0609 32.1779 54.1929 28.4696 56.7859C26.0253 58.496 23.581 60.2247 21.1553 61.9626C20.5977 62.353 20.0679 62.7898 19.5661 63.2452C19.2501 63.5333 19.0549 63.524 18.7668 63.2173C16.8337 61.2377 14.8726 59.2674 12.9302 57.2971C11.7313 56.0889 10.551 54.8621 9.33345 53.6632C9.07322 53.4029 9.09181 53.2356 9.29628 52.9661C10.6718 51.1073 11.9079 49.1649 12.8651 47.0552C13.6458 45.3358 14.0641 43.5049 14.5009 41.6926C15.4489 37.7519 16.3504 33.802 17.2983 29.8614C17.4749 29.1365 17.7259 28.393 18.0883 27.7424C18.804 26.4412 20.0865 25.9672 21.462 25.6791C24.3803 25.0564 27.2986 24.4245 30.2169 23.8018C31.7597 23.4765 33.3118 23.1605 34.8453 22.8259C35.1799 22.7515 35.3379 22.8445 35.4308 23.1512C35.9977 25.0286 36.5832 26.9059 37.1409 28.7926C37.1781 28.9134 37.0386 29.1922 36.9178 29.2387C36.0256 29.6291 35.1055 29.9636 34.204 30.3354C33.9159 30.4562 33.7672 30.3726 33.6928 30.0845C33.6464 29.8893 33.5813 29.6941 33.4977 29.5175C33.3304 29.1458 32.94 28.9785 32.5776 29.0993C32.2058 29.2201 31.9828 29.5733 32.0757 29.9729C32.15 30.3075 32.2616 30.6328 32.3731 30.9488C33.1445 33.17 32.9772 35.3355 31.9828 37.4452C31.8433 37.7427 31.6668 37.9099 31.3322 37.9378C30.6537 37.9936 29.9753 38.0679 29.3061 38.1609C28.8228 38.2259 28.5533 38.5605 28.5905 38.9694C28.6276 39.3877 28.9994 39.713 29.4734 39.6758C30.4307 39.5921 31.3879 39.4992 32.3359 39.3691C32.559 39.3412 32.782 39.1646 32.9493 38.9973C36.8899 35.0753 40.8213 31.144 44.7433 27.2126C45.2452 26.7108 45.7842 26.3018 46.4906 26.1252C48.5445 25.5862 50.6543 27.5472 50.5985 29.2666ZM44.3065 29.4989C43.5537 29.4804 43.1819 30.0938 43.4793 30.6328C44.0927 31.7388 45.0128 32.5195 46.1374 33.0678C46.6207 33.3095 47.0389 33.1979 47.2527 32.789C47.4664 32.3894 47.3084 31.9525 46.8437 31.7109C46.0166 31.2648 45.3009 30.6979 44.7898 29.88C44.669 29.6848 44.3994 29.5733 44.3065 29.4989Z" fill="#FEF261"/>
<path d="M50.7657 32.7797C50.8866 32.6217 50.9981 32.4637 51.1189 32.315C53.0613 29.8056 52.0669 26.6829 49.6319 25.1866C47.6709 23.9876 45.4496 24.285 43.7395 25.9951C42.4012 27.3242 41.0722 28.6625 39.7339 30.0008C39.613 30.1216 39.4643 30.2239 39.2506 30.3911C39.1205 29.9822 39.0275 29.6662 38.9253 29.3502C37.4661 24.5825 36.0163 19.8147 34.5664 15.0469C34.1761 13.7643 34.6408 12.8442 35.914 12.4539C39.3621 11.4037 42.8194 10.3628 46.2675 9.32184C49.9851 8.19728 53.6933 7.05413 57.4109 5.92956C61.0634 4.81429 64.7252 3.70832 68.3777 2.60234C69.6138 2.23058 70.5339 2.75104 70.9243 4.05219C71.6213 6.3292 72.3091 8.6155 72.9968 10.8925C74.2329 14.954 75.469 19.0061 76.6958 23.0675C77.0211 24.1363 76.5378 25.0843 75.469 25.4096C72.4856 26.339 69.493 27.2405 66.5004 28.1513C63.7308 28.9971 60.9612 29.8335 58.1916 30.6793C55.8123 31.4042 53.4238 32.1198 51.0353 32.8447C50.9702 32.8633 50.8959 32.8726 50.8215 32.8912C50.8122 32.8447 50.7936 32.8169 50.7657 32.7797ZM70.0135 17.6864C70.0321 15.5209 69.2328 13.1509 67.7643 11.2643C66.8442 10.0746 65.7197 9.11738 64.3813 8.41104C63.9259 8.1694 63.5263 8.29022 63.3032 8.68056C63.0802 9.06161 63.2103 9.47054 63.6378 9.74007C63.7679 9.82371 63.9074 9.88877 64.0375 9.97242C66.8164 11.7568 68.3034 14.2848 68.4521 17.5934C68.5171 19.0897 68.2104 20.5117 67.5413 21.8593C67.4855 21.9709 67.439 22.0824 67.3926 22.2032C67.216 22.6586 67.3647 23.0768 67.755 23.2627C68.1175 23.4393 68.5264 23.2813 68.7588 22.8538C69.6045 21.311 70.0135 19.6567 70.0135 17.6864ZM67.1974 17.612C67.0487 14.8238 65.7661 12.5282 63.201 10.9855C62.662 10.6602 62.1973 10.7438 61.9556 11.1899C61.7233 11.6174 61.872 11.9892 62.4296 12.3238C62.5319 12.3888 62.6434 12.4446 62.7456 12.5189C64.3813 13.6156 65.3293 15.1398 65.5896 17.0916C65.7568 18.3741 65.5338 19.5823 64.9483 20.7348C64.781 21.0601 64.688 21.4225 64.9762 21.6827C65.162 21.8593 65.5245 22.008 65.7383 21.943C65.9892 21.8686 66.2401 21.5898 66.3702 21.3389C66.9372 20.2143 67.1881 19.034 67.1974 17.612ZM64.4557 18.0024C64.4185 17.9931 64.3813 17.9838 64.3442 17.9652C64.3906 16.19 63.4612 14.4428 61.9649 13.5599C61.714 13.4112 61.3701 13.2903 61.1099 13.3461C60.8868 13.4019 60.6452 13.6993 60.5615 13.9409C60.4407 14.3034 60.6917 14.5729 60.9984 14.7774C62.7084 15.8926 63.2382 17.612 62.4296 19.4429C62.2066 19.9448 62.3181 20.363 62.7084 20.5675C63.1081 20.7719 63.6192 20.6139 63.8144 20.1121C64.0653 19.4243 64.2419 18.6994 64.4557 18.0024Z" fill="#FEF261"/>
<path d="M40.5145 44.9455C40.3658 44.1369 40.5703 43.4305 41.0908 42.8264C41.9923 41.7669 42.9031 40.7167 43.8139 39.6758C44.0091 39.4527 44.1485 39.4527 44.3158 39.7687C44.6782 40.4286 44.6411 41.0699 44.4738 41.7669C43.9812 43.951 43.5444 46.1537 43.0797 48.3377C42.9496 48.9325 42.5778 49.1091 42.0202 48.8675C41.4439 48.6166 41.0629 48.1519 40.9142 47.5663C40.6911 46.702 40.561 45.8191 40.3844 44.9455C40.4309 44.9548 40.4774 44.9455 40.5145 44.9455Z" fill="#FEF261"/>
<path d="M48.7304 34.8243C48.7861 35.1589 48.8419 35.4006 48.8512 35.6329C48.9627 37.3616 49.0742 39.0903 49.1672 40.8097C49.2043 41.4974 49.0556 41.6647 48.3679 41.5811C47.0296 41.4231 46.2675 40.5401 45.8121 39.3691C45.3288 38.133 45.3474 38.1237 46.2861 37.185C46.9459 36.5158 47.6151 35.8467 48.2843 35.1868C48.3958 35.0846 48.5352 34.9916 48.7304 34.8243Z" fill="#FEF261"/>
<path d="M34.3713 35.3448C34.3713 34.7221 34.3806 34.2295 34.3713 33.737C34.3527 33.2909 34.3341 32.8448 34.269 32.3986C34.2226 32.1012 34.3062 31.9432 34.5943 31.8317C35.4215 31.5157 36.2301 31.1812 37.0572 30.8652C37.2803 30.7815 37.5312 30.5213 37.7542 30.8559C38.0238 31.2555 38.0052 31.7109 37.7264 31.9897C36.9643 32.7611 36.2022 33.5232 35.4308 34.2853C35.0962 34.6292 34.7616 34.9545 34.3713 35.3448Z" fill="#FEF261"/>
<path d="M45.0221 41.3487C44.8548 42.1294 44.6968 42.845 44.5388 43.5699C44.2414 44.964 43.8975 46.3488 43.6745 47.7522C43.4421 49.1928 41.8064 50.1779 40.1707 49.2113C39.074 48.5608 38.5628 47.5384 38.2747 46.3581C38.2282 46.1908 38.1725 46.0235 38.0702 45.7075C37.8193 46.1536 37.6148 46.4696 37.4661 46.8135C35.4215 51.4233 31.9084 54.7133 27.8562 57.5294C25.2446 59.351 22.6609 61.2284 20.0865 63.1057C19.2593 63.7099 19.2779 63.7377 20.0029 64.4627C20.3096 64.7694 20.6163 65.0761 20.9137 65.3921C21.2761 65.7824 21.2947 66.2192 20.923 66.5817C19.185 68.301 17.447 70.0204 15.6905 71.7305C15.3094 72.1023 14.9377 72.0837 14.5102 71.6654C13.683 70.8569 12.8651 70.0204 12.0473 69.1933C8.19029 65.2898 4.32402 61.3864 0.457752 57.4736C-0.146352 56.8602 -0.155646 56.4978 0.448458 55.903C2.05631 54.3137 3.67345 52.7337 5.2813 51.1445C5.87611 50.5683 6.08987 50.5404 6.74044 51.0608C6.99138 51.256 7.1029 51.1538 7.2609 50.9493C9.48215 47.9567 11.1365 44.7131 11.9264 41.0327C12.8558 36.7389 13.9525 32.4823 14.947 28.1978C15.6068 25.3724 17.3727 23.8018 20.1794 23.2255C24.6033 22.324 29.018 21.3482 33.4419 20.4188C33.8322 20.3351 33.8601 20.1493 33.7579 19.824C33.2188 18.0767 32.7076 16.3295 32.1593 14.5822C31.4994 12.4539 32.5032 10.6323 34.6315 10.0003C38.2933 8.91292 41.9458 7.78835 45.6076 6.67308C48.9069 5.66934 52.2156 4.67489 55.5149 3.67115C58.7864 2.6767 62.0578 1.68225 65.3293 0.6878C65.9334 0.501922 66.5375 0.30675 67.1509 0.139459C69.0747 -0.399588 70.8778 0.659919 71.454 2.58376C72.8852 7.34225 74.3444 12.0914 75.7942 16.8499C76.2868 18.4671 76.7887 20.0749 77.2441 21.7013C77.8017 23.6624 76.8538 25.4096 74.9113 26.0044C70.2365 27.4357 65.5616 28.8484 60.8775 30.2703C57.2622 31.367 53.6561 32.473 50.0408 33.5511C49.5482 33.6998 49.3902 33.9043 49.4367 34.4247C49.5854 36.1813 49.6319 37.9471 49.7899 39.7037C50.0036 42.0457 48.1077 42.6034 46.4348 42.0457C45.9794 41.8877 45.5518 41.6089 45.0221 41.3487ZM49.669 28.3372C49.7248 26.6085 47.6151 24.6475 45.5425 25.1773C44.8362 25.3539 44.2972 25.7628 43.7953 26.2647C39.864 30.196 35.9326 34.1273 32.0013 38.0493C31.834 38.2166 31.6017 38.3932 31.3879 38.4211C30.4399 38.5512 29.4827 38.6442 28.5254 38.7278C28.0514 38.765 27.6796 38.4397 27.6425 38.0215C27.6053 37.6032 27.8748 37.278 28.3581 37.2129C29.0366 37.12 29.7057 37.0456 30.3842 36.9898C30.728 36.962 30.9046 36.7947 31.0347 36.4973C32.0292 34.3783 32.1965 32.2221 31.4251 30.0008C31.3136 29.6755 31.202 29.3595 31.1277 29.025C31.0347 28.6253 31.2578 28.2721 31.6296 28.1513C31.992 28.0305 32.3824 28.2071 32.5497 28.5695C32.6333 28.7554 32.6984 28.9413 32.7448 29.1365C32.8192 29.4246 32.9679 29.5082 33.256 29.3874C34.1575 29.0157 35.0683 28.6718 35.9698 28.2907C36.0906 28.235 36.23 27.9654 36.1929 27.8446C35.6352 25.958 35.059 24.0806 34.4828 22.2032C34.3898 21.8965 34.2318 21.8036 33.8973 21.8779C32.3545 22.2218 30.8117 22.5285 29.2689 22.8538C26.3506 23.4765 23.4323 24.1178 20.514 24.7312C19.1385 25.0193 17.856 25.484 17.1403 26.7944C16.7779 27.4543 16.5269 28.1885 16.3503 28.9134C15.4024 32.854 14.5009 36.804 13.5529 40.7446C13.1161 42.5662 12.6978 44.3878 11.9172 46.1072C10.9599 48.2169 9.72379 50.1593 8.34829 52.0181C8.14382 52.2876 8.13453 52.4642 8.38546 52.7151C9.59367 53.9141 10.7833 55.1316 11.9822 56.3491C13.9339 58.3194 15.8857 60.2897 17.8188 62.2693C18.1162 62.5667 18.3021 62.576 18.6181 62.2972C19.1199 61.8418 19.6497 61.405 20.2073 61.0146C22.6423 59.2767 25.0773 57.5573 27.5216 55.8379C31.2206 53.2449 34.2876 50.1129 36.1929 45.9306C36.9178 44.332 37.8193 42.7985 38.7022 41.2743C39.9197 39.1832 41.7971 37.659 43.4607 35.9582C45.1801 34.2017 46.9366 32.473 48.6653 30.7257C49.2787 30.1495 49.6598 29.4339 49.669 28.3372ZM49.8363 31.8503C49.8642 31.8782 49.8828 31.9154 49.9107 31.9432C49.985 31.934 50.0501 31.9247 50.1244 31.8968C52.513 31.1811 54.8922 30.4562 57.2808 29.7313C60.0504 28.8948 62.8199 28.0491 65.5895 27.2033C68.5822 26.2925 71.5748 25.391 74.5582 24.4616C75.627 24.1271 76.1102 23.1791 75.785 22.1196C74.5582 18.0581 73.3221 14.006 72.086 9.94454C71.3796 7.67683 70.6919 5.39052 70.0041 3.11351C69.6138 1.82166 68.6844 1.29191 67.4576 1.66366C63.7958 2.76964 60.1433 3.88491 56.4908 4.99088C52.7732 6.12474 49.0649 7.2586 45.3474 8.38316C41.8993 9.43338 38.442 10.465 34.9939 11.5152C33.7207 11.9056 33.2467 12.8257 33.6463 14.1082C35.0962 18.876 36.5553 23.6438 38.0052 28.4116C38.0981 28.7275 38.2004 29.0528 38.3305 29.4525C38.5349 29.2852 38.6836 29.183 38.8138 29.0621C40.1521 27.7331 41.4811 26.3948 42.8194 25.0564C44.5295 23.3557 46.7508 23.049 48.7118 24.2479C51.1468 25.7442 52.1505 28.8577 50.1988 31.3763C50.0687 31.5436 49.9572 31.6923 49.8363 31.8503ZM19.2686 65.9869C19.185 65.8753 19.1385 65.7824 19.0642 65.708C18.7668 65.4013 18.4508 65.0946 18.1441 64.7879C14.2499 60.8473 10.3465 56.9067 6.45233 52.9568C6.13634 52.6408 5.95046 52.6315 5.63446 52.9568C4.51919 54.0906 3.37604 55.2152 2.23289 56.3119C1.9076 56.6186 1.97266 56.8138 2.25148 57.1019C6.45233 61.3306 10.6439 65.5686 14.8261 69.816C15.0678 70.0669 15.2351 70.0483 15.4767 69.816C16.657 68.6356 17.856 67.4646 19.0363 66.2843C19.1292 66.2006 19.185 66.0891 19.2686 65.9869ZM39.5851 44.016C39.5387 44.016 39.5015 44.0253 39.455 44.0253C39.6223 44.899 39.7617 45.7819 39.9848 46.6462C40.1335 47.2317 40.5145 47.6871 41.0908 47.9474C41.6484 48.189 42.0202 48.0124 42.1503 47.4176C42.615 45.2243 43.0518 43.0309 43.5444 40.8468C43.7024 40.1405 43.7395 39.5085 43.3864 38.8486C43.2098 38.5326 43.0797 38.5326 42.8845 38.7557C41.9737 39.7966 41.0629 40.8468 40.1614 41.9063C39.6502 42.5011 39.4364 43.2075 39.5851 44.016ZM47.801 33.895C47.6058 34.0623 47.4664 34.1552 47.3549 34.2667C46.6857 34.9266 46.0258 35.5958 45.3567 36.2649C44.4273 37.2036 44.3994 37.2129 44.8827 38.449C45.3381 39.62 46.1002 40.5029 47.4385 40.6609C48.1263 40.7446 48.275 40.5773 48.2378 39.8895C48.1448 38.1609 48.0333 36.4322 47.9218 34.7128C47.9125 34.4712 47.8567 34.2295 47.801 33.895ZM33.4419 34.4154C33.8322 34.0344 34.1668 33.6998 34.5014 33.3652C35.2635 32.6031 36.0349 31.8317 36.797 31.0696C37.0758 30.7908 37.0851 30.3354 36.8249 29.9358C36.6018 29.6012 36.3509 29.8614 36.1278 29.9451C35.3007 30.2518 34.4921 30.5956 33.6649 30.9116C33.3861 31.0231 33.2932 31.1718 33.3396 31.4785C33.4047 31.9247 33.4233 32.3708 33.4419 32.8169C33.4605 33.3002 33.4419 33.7834 33.4419 34.4154Z" fill="#2E2E2E"/>
<path d="M43.3771 28.5696C43.4793 28.6439 43.7396 28.7554 43.8697 28.9599C44.3808 29.7778 45.0872 30.3447 45.9236 30.7908C46.3883 31.0417 46.537 31.4786 46.3326 31.8689C46.1188 32.2778 45.7006 32.3894 45.2173 32.1477C44.0927 31.5901 43.1726 30.8187 42.5592 29.7127C42.2525 29.1644 42.6243 28.551 43.3771 28.5696Z" fill="#2E2E2E"/>
<path d="M69.084 16.757C69.084 18.7366 68.6751 20.3816 67.848 21.9244C67.6156 22.3519 67.2067 22.5099 66.8442 22.3333C66.4446 22.1475 66.3052 21.7199 66.4818 21.2738C66.5282 21.1623 66.5747 21.0415 66.6305 20.93C67.2996 19.5823 67.6063 18.1604 67.5413 16.664C67.3926 13.3554 65.9055 10.8275 63.1266 9.04303C62.9965 8.95939 62.8571 8.89433 62.727 8.81068C62.2995 8.53187 62.1694 8.13223 62.3924 7.75118C62.6155 7.36083 63.0244 7.24001 63.4705 7.48165C64.7996 8.18799 65.9241 9.14526 66.8535 10.3349C68.3127 12.2216 69.1026 14.5822 69.084 16.757Z" fill="#2E2E2E"/>
<path d="M66.268 16.6826C66.2587 18.1046 65.9985 19.2942 65.4409 20.4002C65.3107 20.6511 65.0598 20.93 64.8089 21.0043C64.5951 21.0694 64.2326 20.9207 64.0468 20.7441C63.7679 20.4838 63.8609 20.1307 64.0189 19.7961C64.6044 18.6436 64.8275 17.4354 64.6602 16.1529C64.3999 14.2011 63.4426 12.6769 61.8162 11.5803C61.714 11.5152 61.6024 11.4501 61.5002 11.3851C60.9519 11.0505 60.7939 10.688 61.0262 10.2512C61.2679 9.80512 61.7326 9.72147 62.2716 10.0468C64.846 11.5896 66.1193 13.8944 66.268 16.6826Z" fill="#2E2E2E"/>
<path d="M63.5263 17.073C63.3125 17.7793 63.136 18.495 62.8757 19.1827C62.6806 19.6846 62.1787 19.8519 61.7697 19.6381C61.3794 19.4336 61.2679 19.0154 61.4909 18.5135C62.2995 16.6826 61.7697 14.9633 60.0596 13.848C59.7529 13.6435 59.502 13.374 59.6228 13.0115C59.7065 12.7699 59.9481 12.4725 60.1712 12.4167C60.4314 12.361 60.7753 12.4818 61.0262 12.6305C62.5226 13.5227 63.452 15.2607 63.4055 17.0358C63.452 17.0451 63.4891 17.0544 63.5263 17.073Z" fill="#2E2E2E"/>
</svg>
