<svg width="73" height="72" viewBox="0 0 73 72" fill="none" xmlns="http://www.w3.org/2000/svg">
<path d="M45.0054 45.6268C44.9214 45.8648 44.9214 45.9628 44.8794 45.9909C43.1011 47.3491 41.3648 48.7773 39.0405 49.1274C37.2062 49.4074 35.4979 49.0854 33.9296 48.1332C31.4793 46.649 29.1969 44.9687 27.3346 42.7703C25.8363 41.0061 24.9682 39.0457 25.0522 36.6514C25.1642 33.3468 25.1502 30.0283 25.0522 26.7098C24.9822 24.1894 27.0685 21.823 30.009 22.3551C32.9215 22.8871 35.7079 22.2991 38.3824 21.0529C40.7767 19.9467 43.2691 19.2326 45.9016 19.0225C48.688 18.8125 50.6343 20.5628 50.6343 23.3632C50.6343 27.956 50.6203 32.5627 50.6483 37.1554C50.6483 38.3316 50.4663 39.4378 49.9202 40.46C49.6682 40.936 49.7382 41.2441 50.2143 41.4681C50.4383 41.5801 50.6483 41.7902 50.8864 41.8322C51.0964 41.8602 51.3484 41.7342 51.5305 41.6082C51.6425 41.5241 51.7265 41.3421 51.7545 41.1881C51.9785 40.0119 52.7487 39.7599 53.7988 39.9419C54.2609 40.0119 54.723 40.0819 55.1991 40.1379C55.003 40.6 54.877 41.1181 54.611 41.5241C53.6588 42.9944 52.2446 43.6665 50.5223 43.6665C47.4698 43.6805 44.4033 43.6525 41.3508 43.6805C40.8328 43.6805 40.6227 43.4144 40.3847 43.0364C39.6566 41.9022 38.3263 41.3841 37.1082 41.7202C35.8339 42.0702 34.9098 43.1764 34.8398 44.4366C34.7698 45.8368 35.5399 46.985 36.8561 47.4751C38.1443 47.9512 39.6286 47.4611 40.3847 46.2149C40.6647 45.7528 41.0008 45.5848 41.5049 45.5988C42.639 45.6408 43.7732 45.6268 45.0054 45.6268Z" fill="#FEF261"/>
<path d="M38.033 3.39604C44.5441 3.48005 49.6269 6.16849 53.1134 11.7134C55.2838 15.1719 55.7879 18.9665 55.1578 22.9572C55.0317 23.7413 54.8777 24.5114 54.7797 25.3096C54.7237 25.8696 54.4717 26.1077 53.9256 26.0517C53.8275 26.0377 53.7435 26.0517 53.6455 26.0517C52.6374 26.0517 52.6794 26.0517 52.6234 25.0575C52.5393 23.7413 52.5673 22.3831 52.2173 21.1229C51.5872 18.8125 49.3468 17.1602 46.9664 17.0902C44.054 16.9922 41.2675 17.6923 38.6211 18.8545C36.1987 19.9187 33.7763 20.8148 31.0739 20.5348C30.4298 20.4648 29.7717 20.3528 29.1276 20.3388C26.2991 20.2968 23.7787 22.3831 23.2606 25.1695C23.1206 25.9397 22.0705 26.4017 21.4124 25.9537C21.3003 25.8696 21.2023 25.6876 21.1883 25.5476C20.9503 23.7693 20.5442 21.991 20.5302 20.2127C20.4882 13.7017 23.5687 8.91293 29.0716 5.6364C31.802 3.98414 34.8405 3.34003 38.033 3.39604Z" fill="#FEF261"/>
<path d="M31.1712 48.7213C35.6379 52.0538 40.1046 52.0258 44.5153 48.7493C45.0054 49.6174 44.8094 50.9756 44.1513 51.5217C42.233 53.104 40.3007 54.6722 38.3824 56.2825C37.9903 56.6185 37.7102 56.6185 37.3042 56.2825C35.4559 54.7282 33.5656 53.202 31.7033 51.6618C30.9052 50.9756 30.6951 49.9255 31.1712 48.7213Z" fill="#FEF261"/>
<path d="M43.1012 61.8834C42.9612 61.7714 42.8352 61.6734 42.7232 61.5613C41.729 60.5392 40.7489 59.517 39.7547 58.5089C39.3906 58.1448 39.4607 57.9068 39.8247 57.6127C41.799 56.0165 43.7593 54.4062 45.7057 52.7819C46.1117 52.4459 46.3638 52.4879 46.6578 52.894C47.3859 53.8881 48.1421 54.8683 48.8982 55.8344C49.1502 56.1565 49.1502 56.3945 48.8422 56.6746C47.0639 58.3128 45.2996 59.9651 43.5213 61.6174C43.4093 61.7294 43.2553 61.7854 43.1012 61.8834Z" fill="#FEF261"/>
<path d="M29.5191 52.4739C29.7012 52.5999 29.8552 52.6839 29.9952 52.7959C31.9555 54.4062 33.9158 56.0165 35.8902 57.6127C36.2542 57.9068 36.3102 58.1588 35.9462 58.5089C34.952 59.489 33.9859 60.4972 33.0197 61.5193C32.6976 61.8554 32.4596 61.9114 32.0956 61.5613C30.3593 59.9371 28.623 58.3268 26.8727 56.7166C26.6067 56.4645 26.4807 56.2405 26.7467 55.8904C27.5588 54.8683 28.3289 53.8181 29.1271 52.7959C29.2391 52.6839 29.3791 52.5859 29.5191 52.4739Z" fill="#FEF261"/>
<path d="M23.0642 33.0388C23.0642 34.467 23.0502 35.8812 23.0782 37.3095C23.0922 37.7855 22.9241 37.9816 22.4341 37.9676C21.7339 37.9396 21.0338 37.9816 20.3337 37.9536C19.6056 37.9256 19.2555 37.5895 19.2415 36.8614C19.2275 34.271 19.2415 31.6806 19.2275 29.0901C19.2275 28.404 19.6056 28.04 20.2497 27.998C21.0198 27.942 21.7899 27.984 22.5601 27.97C23.0221 27.97 23.0642 28.264 23.0642 28.6281C23.0642 30.0983 23.0782 31.5685 23.0642 33.0388Z" fill="#FEF261"/>
<path d="M52.6372 32.9688C52.6372 31.5405 52.6512 30.1263 52.6231 28.6981C52.6091 28.152 52.7912 27.928 53.3373 27.956C53.9954 27.984 54.6395 27.942 55.2976 27.97C56.0957 27.998 56.4458 28.348 56.4458 29.1462C56.4598 31.6806 56.4598 34.229 56.4458 36.7634C56.4458 37.5755 56.0957 37.9116 55.2836 37.9396C54.6115 37.9536 53.9254 37.9396 53.2532 37.9536C52.7772 37.9676 52.5951 37.7715 52.6091 37.2955C52.6512 35.8672 52.6372 34.411 52.6372 32.9688Z" fill="#FEF261"/>
<path d="M38.8445 44.6326C38.8585 45.2067 38.4105 45.6688 37.8644 45.6688C37.2903 45.6688 36.8562 45.2347 36.8562 44.6466C36.8562 44.0725 37.2903 43.6245 37.8504 43.6245C38.4245 43.6245 38.8305 44.0305 38.8445 44.6326Z" fill="#FEF261"/>
<path d="M37.3325 59.363C37.3325 59.643 37.3325 59.909 37.3325 60.1891C37.3325 63.8297 37.3325 67.4703 37.3325 71.1108C37.3325 71.979 37.3325 71.951 36.2544 71.979C35.5962 72.007 35.3722 71.783 35.3722 71.0968C35.4002 67.4143 35.3862 63.7177 35.3862 60.0351C35.3862 59.811 35.3862 59.587 35.3862 59.1669C35.0642 59.405 34.8541 59.517 34.6861 59.685C33.6639 60.7212 32.6558 61.7433 31.6616 62.8075C31.2696 63.2416 30.9895 63.2136 30.5834 62.8215C28.3711 60.7492 26.1307 58.7049 23.9184 56.6325C23.5123 56.2545 23.1483 56.1704 22.6022 56.3385C18.6115 57.5707 14.5789 58.6769 10.6302 60.0211C5.9955 61.6033 3.18105 64.9079 2.18689 69.7106C2.07487 70.2567 2.01886 70.8168 1.99086 71.3769C1.97686 71.825 1.79483 71.979 1.36076 71.993C-0.0814745 72.021 -0.109479 72.035 0.0865524 70.5788C0.912685 64.3058 4.30123 60.0771 10.3082 58.0748C14.2848 56.7445 18.3315 55.6104 22.3361 54.3642C22.7282 54.2381 23.1343 53.9721 23.3863 53.65C24.6325 52.0818 25.8507 50.4855 27.0549 48.8893C27.839 47.8531 27.629 45.9068 26.6908 45.0667C24.7585 43.3444 23.0362 41.4681 22.0561 39.0037C21.9721 38.7937 21.622 38.5836 21.384 38.5696C20.5438 38.5136 19.7037 38.5696 18.8636 38.5416C16.9313 38.4996 15.7131 37.2814 15.7131 35.3631C15.6991 32.8147 15.7131 30.2803 15.7131 27.7319C15.7131 26.5697 16.1891 25.6456 17.1973 25.0435C17.5754 24.8194 17.6734 24.5674 17.6174 24.1333C17.3793 22.313 17.0433 20.4787 17.0153 18.6444C16.9313 12.6235 19.5077 7.8207 24.1424 4.1101C28.7491 0.427511 34.084 -0.552646 39.7829 0.273486C45.3558 1.07161 49.6965 3.94207 52.847 8.57682C55.4934 12.4554 56.3056 16.7681 55.6335 21.3889C55.4934 22.355 55.2974 23.3212 55.1854 24.2873C55.1574 24.5254 55.3114 24.8894 55.4934 25.0295C56.5156 25.7296 56.9357 26.6957 56.9357 27.8999C56.9217 30.4203 56.9497 32.9407 56.9077 35.4611C56.8937 35.9792 56.7956 36.5953 56.5016 36.9874C55.9835 37.6735 55.8155 38.4156 55.6055 39.2137C54.8633 42.1122 52.483 44.0445 49.5005 44.2125C48.9824 44.2405 48.4643 44.2685 47.9602 44.2265C47.2181 44.1705 46.63 44.3946 46.0839 44.9266C44.9637 45.9908 44.7397 47.7971 45.6779 49.0293C46.8681 50.6116 48.0722 52.1938 49.3044 53.7341C49.5285 54.0141 49.9065 54.2521 50.2566 54.3642C54.3313 55.6244 58.4339 56.8286 62.4946 58.1168C68.3335 59.9791 72.2401 65.0899 72.6462 71.2229C72.6882 71.755 72.5342 72.021 71.9601 71.979C71.75 71.965 71.54 71.965 71.33 71.979C70.7979 72.035 70.6579 71.783 70.6299 71.2929C70.3778 66.042 66.7512 61.4213 61.7244 59.909C57.7478 58.7189 53.7852 57.4867 49.8085 56.3105C49.5285 56.2265 49.0664 56.3665 48.8424 56.5765C46.63 58.5788 44.4457 60.6232 42.2613 62.6535C41.5192 63.3396 41.5192 63.3536 40.8331 62.6395C39.9229 61.7013 39.0128 60.7632 38.1026 59.825C37.9066 59.615 37.6686 59.447 37.4445 59.2509C37.4585 59.307 37.4025 59.335 37.3325 59.363ZM43.5215 44.2265C42.2893 44.2265 41.1551 44.2405 40.021 44.2125C39.5029 44.1985 39.1808 44.3666 38.9008 44.8286C38.1447 46.0748 36.6604 46.5649 35.3722 46.0888C34.056 45.5988 33.2999 44.4506 33.3559 43.0503C33.4119 41.7901 34.336 40.684 35.6243 40.3339C36.8424 39.9979 38.1727 40.5159 38.9008 41.6501C39.1388 42.0282 39.3489 42.2942 39.8669 42.2942C42.9194 42.2662 45.9859 42.2942 49.0384 42.2802C50.7607 42.2662 52.1749 41.6081 53.1271 40.1379C53.3931 39.7178 53.5191 39.2137 53.7152 38.7517C53.2531 38.6816 52.777 38.6256 52.3149 38.5556C51.2648 38.3876 50.4946 38.6396 50.2706 39.8018C50.2426 39.9559 50.1586 40.1519 50.0466 40.2219C49.8645 40.3479 49.5985 40.4739 49.4025 40.4459C49.1644 40.4179 48.9544 40.1939 48.7304 40.0819C48.2543 39.8578 48.1703 39.5498 48.4363 39.0737C48.9824 38.0515 49.1784 36.9314 49.1644 35.7692C49.1364 31.1764 49.1644 26.5697 49.1504 21.977C49.1504 19.1765 47.2041 17.4262 44.4177 17.6363C41.7712 17.8323 39.2788 18.5464 36.8985 19.6666C34.224 20.9128 31.4516 21.5009 28.5251 20.9688C25.5846 20.4367 23.4843 22.8171 23.5683 25.3235C23.6663 28.628 23.6803 31.9466 23.5683 35.2651C23.4843 37.6735 24.3524 39.6198 25.8507 41.3841C27.713 43.5824 29.9953 45.2627 32.4457 46.7469C34.014 47.6991 35.7363 48.0071 37.5566 47.7411C39.8809 47.391 41.6172 45.9488 43.3955 44.6046C43.4375 44.5486 43.4375 44.4646 43.5215 44.2265ZM36.5484 1.99576C33.3419 1.93975 30.3034 2.58386 27.559 4.23612C22.0561 7.52665 18.9896 12.3014 19.0176 18.8125C19.0316 20.5907 19.4377 22.369 19.6757 24.1473C19.6897 24.2873 19.7877 24.4694 19.8997 24.5534C20.5578 24.9874 21.608 24.5394 21.748 23.7693C22.2661 20.9828 24.7865 18.8965 27.615 18.9385C28.2591 18.9525 28.9172 19.0645 29.5613 19.1345C32.2637 19.4146 34.6861 18.5184 37.1085 17.4542C39.7549 16.2921 42.5414 15.5919 45.4538 15.69C47.8482 15.774 50.0746 17.4262 50.7047 19.7226C51.0547 20.9828 51.0267 22.341 51.1107 23.6572C51.1667 24.6374 51.1247 24.6514 52.1329 24.6514C52.2309 24.6514 52.3149 24.6374 52.4129 24.6514C52.973 24.7214 53.2111 24.4694 53.2671 23.9093C53.3511 23.1252 53.5191 22.341 53.6451 21.5569C54.2752 17.5663 53.7852 13.7717 51.6008 10.3131C48.1423 4.76821 43.0594 2.07978 36.5484 1.99576ZM29.6873 47.321C29.2112 48.5252 29.4353 49.5894 30.2334 50.2475C32.0957 51.7877 33.986 53.314 35.8343 54.8682C36.2404 55.2043 36.5064 55.2043 36.9125 54.8682C38.8168 53.272 40.7631 51.7037 42.6814 50.1075C43.3395 49.5754 43.5355 48.2172 43.0454 47.335C38.6207 50.6256 34.154 50.6536 29.6873 47.321ZM41.6172 60.4831C41.7712 60.3851 41.9253 60.3291 42.0513 60.2311C43.8296 58.5928 45.5939 56.9406 47.3721 55.2883C47.6802 55.0083 47.6662 54.7562 47.4281 54.4482C46.672 53.482 45.9159 52.5019 45.1878 51.5077C44.8797 51.1016 44.6417 51.0456 44.2356 51.3957C42.2893 53.0199 40.315 54.6162 38.3547 56.2265C37.9906 56.5205 37.9206 56.7585 38.2847 57.1226C39.2928 58.1308 40.273 59.1529 41.2532 60.1751C41.3512 60.2731 41.4772 60.3711 41.6172 60.4831ZM28.035 51.0736C27.895 51.1997 27.755 51.2837 27.657 51.4097C26.8588 52.4459 26.0747 53.482 25.2766 54.5042C24.9965 54.8542 25.1226 55.0923 25.4026 55.3303C27.1529 56.9406 28.8892 58.5508 30.6255 60.1751C30.9895 60.5112 31.2275 60.4691 31.5496 60.1331C32.5018 59.1109 33.4819 58.1168 34.4761 57.1226C34.8401 56.7585 34.7841 56.5205 34.4201 56.2265C32.4457 54.6302 30.4994 53.0199 28.5251 51.4097C28.3711 51.2837 28.2171 51.1857 28.035 51.0736ZM21.58 31.6385C21.58 30.1683 21.58 28.698 21.58 27.2278C21.58 26.8638 21.538 26.5697 21.0759 26.5697C20.3058 26.5837 19.5357 26.5417 18.7655 26.5977C18.1214 26.6397 17.7434 27.0038 17.7434 27.6899C17.7434 30.2803 17.7294 32.8707 17.7574 35.4611C17.7574 36.1892 18.1214 36.5253 18.8496 36.5533C19.5497 36.5813 20.2498 36.5393 20.9499 36.5673C21.44 36.5813 21.594 36.3853 21.594 35.9092C21.566 34.481 21.58 33.0667 21.58 31.6385ZM51.1527 31.5685C51.1527 33.0107 51.1667 34.453 51.1387 35.9092C51.1387 36.3853 51.3068 36.5813 51.7828 36.5673C52.455 36.5533 53.1411 36.5673 53.8132 36.5533C54.6113 36.5253 54.9614 36.1892 54.9754 35.3771C54.9894 32.8427 54.9894 30.2943 54.9754 27.7599C54.9754 26.9618 54.6253 26.6117 53.8272 26.5837C53.1691 26.5557 52.525 26.5977 51.8669 26.5697C51.3208 26.5417 51.1387 26.7657 51.1527 27.3118C51.1807 28.726 51.1527 30.1543 51.1527 31.5685ZM37.3605 43.2324C37.3465 42.6303 36.9545 42.2242 36.3664 42.2242C35.8063 42.2242 35.3722 42.6723 35.3722 43.2464C35.3722 43.8205 35.8063 44.2685 36.3804 44.2685C36.9265 44.2685 37.3745 43.8065 37.3605 43.2324Z" fill="#2E2E2E"/>
</svg>
