<svg width="26" height="26" viewBox="0 0 26 26" fill="none" xmlns="http://www.w3.org/2000/svg">
<path d="M11.2998 20.65C11.2998 21.2299 10.8297 21.7 10.2498 21.7C9.66986 21.7 9.19976 21.2299 9.19976 20.65C9.19976 20.0701 9.66986 19.6 10.2498 19.6C10.8297 19.6 11.2998 20.0701 11.2998 20.65Z" stroke="#2E2E2E" stroke-width="1.4"/>
<path d="M20.3998 20.65C20.3998 21.2299 19.9297 21.7 19.3498 21.7C18.7699 21.7 18.2998 21.2299 18.2998 20.65C18.2998 20.0701 18.7699 19.6 19.3498 19.6C19.9297 19.6 20.3998 20.0701 20.3998 20.65Z" stroke="#2E2E2E" stroke-width="1.4"/>
<path d="M23.4151 4.9L23.4261 4.91434L23.4374 4.92757L21.2041 14.0003L21.194 14H21.1838H10.3828H10.1301L9.93573 14.1613L9.71563 14.344L9.57313 13.8938L6.36713 3.76477L6.25623 3.41439L5.90483 3.30672L3.39238 2.53689C3.39236 2.53688 3.39235 2.53688 3.39234 2.53688C3.39159 2.53664 3.39097 2.53611 3.3906 2.53542C3.39022 2.53471 3.39015 2.53388 3.39038 2.53312C3.39062 2.53236 3.39114 2.53172 3.39185 2.53134L3.39298 2.53101L3.39414 2.53113L6.26413 3.41312L6.26542 3.41352L6.57904 4.41013L6.7332 4.90001H7.24676L23.4151 4.9ZM23.4952 4.91328L23.4951 4.91327L23.9585 4.79336L23.4952 4.91328ZM9.35029 14.6457L9.53519 14.4937L8.24873 15.5613L8.18327 15.6157C8.18516 15.6134 8.18705 15.6111 8.18895 15.6088L8.23563 15.5621L9.35029 14.6457ZM8.10087 15.73L8.08679 15.7548C7.98765 15.9297 7.9353 16.1272 7.93478 16.3282C7.93425 16.5293 7.98559 16.7271 8.08381 16.9025C8.18204 17.0779 8.32384 17.225 8.49551 17.3296C8.6672 17.4342 8.86295 17.4927 9.06386 17.4996L9.07581 17.5H9.08776L9.18245 17.5L9.16517 17.5009C8.97424 17.5103 8.78375 17.4749 8.60894 17.3976L8.33797 18.01L8.60894 17.3976C8.43662 17.3213 8.28424 17.2064 8.16364 17.0617C8.00061 16.8508 7.915 16.5902 7.92131 16.3235C7.92632 16.112 7.98893 15.907 8.10087 15.73Z" stroke="#2E2E2E" stroke-width="1.4"/>
</svg>
